<svg xmlns="http://www.w3.org/2000/svg" xmlns:xlink="http://www.w3.org/1999/xlink" viewBox="0,0,270,270" width="120px" height="120px"><g fill="none" fill-rule="nonzero" stroke="none" stroke-width="1" stroke-linecap="butt" stroke-linejoin="miter" stroke-miterlimit="10" stroke-dasharray="" stroke-dashoffset="0" font-family="none" font-weight="none" font-size="none" text-anchor="none" style="mix-blend-mode: normal"><g transform="scale(2.56,2.56)"><path d="M87.215,56.71c1.135,-2.155 1.785,-4.605 1.785,-7.21c0,-6.621 -4.159,-12.257 -10.001,-14.478c0,-0.007 0.001,-0.014 0.001,-0.022c0,-11.598 -9.402,-21 -21,-21c-9.784,0 -17.981,6.701 -20.313,15.757c-1.476,-0.485 -3.049,-0.757 -4.687,-0.757c-7.692,0 -14.023,5.793 -14.89,13.252c-5.204,1.101 -9.11,5.717 -9.11,11.248c0,6.351 5.149,11.5 11.5,11.5c0.177,0 0.352,-0.012 0.526,-0.022c-0.004,0.175 -0.026,0.346 -0.026,0.522c0,11.322 9.178,20.5 20.5,20.5c6.437,0 12.175,-2.972 15.934,-7.614c2.178,2.225 5.206,3.614 8.566,3.614c4.65,0 8.674,-2.65 10.666,-6.518c1.052,0.335 2.171,0.518 3.334,0.518c6.075,0 11,-4.925 11,-11c0,-3.311 -1.47,-6.273 -3.785,-8.29z" fill="#ef0534"></path><path d="M36.5,75.5c0,0 1.567,0 3.5,0c1.933,0 3.5,-1.567 3.5,-3.5c0,-1.781 -1.335,-3.234 -3.055,-3.455c0.028,-0.179 0.055,-0.358 0.055,-0.545c0,-1.933 -1.567,-3.5 -3.5,-3.5c-1.032,0 -1.95,0.455 -2.59,1.165c-0.384,-1.808 -1.987,-3.165 -3.91,-3.165c-2.209,0 -4,1.791 -4,4c0,0.191 0.03,0.374 0.056,0.558c-0.428,-0.344 -0.964,-0.558 -1.556,-0.558c-1.228,0 -2.245,0.887 -2.455,2.055c-0.179,-0.028 -0.358,-0.055 -0.545,-0.055c-1.933,0 -3.5,1.567 -3.5,3.5c0,1.933 1.567,3.5 3.5,3.5c1.933,0 7.5,0 7.5,0v0.5h7z" fill="#fdfcef"></path><circle cx="31.5" cy="75.5" r="0.5" fill="#472b29"></circle><path d="M40,76h-3.5c-0.276,0 -0.5,-0.224 -0.5,-0.5c0,-0.276 0.224,-0.5 0.5,-0.5h3.5c1.654,0 3,-1.346 3,-3c0,-1.496 -1.125,-2.768 -2.618,-2.959c-0.134,-0.018 -0.255,-0.088 -0.336,-0.196c-0.081,-0.108 -0.115,-0.244 -0.094,-0.377c0.023,-0.154 0.048,-0.308 0.048,-0.468c0,-1.654 -1.346,-3 -3,-3c-0.85,0 -1.638,0.355 -2.219,1c-0.125,0.139 -0.321,0.198 -0.5,0.148c-0.182,-0.049 -0.321,-0.195 -0.36,-0.379c-0.341,-1.604 -1.78,-2.769 -3.421,-2.769c-1.93,0 -3.5,1.57 -3.5,3.5c0,0.143 0.021,0.28 0.041,0.418c0.029,0.203 -0.063,0.438 -0.242,0.54c-0.179,0.102 -0.396,0.118 -0.556,-0.01c-0.365,-0.293 -0.794,-0.448 -1.243,-0.448c-0.966,0 -1.792,0.691 -1.963,1.644c-0.048,0.267 -0.296,0.446 -0.569,0.405c-0.154,-0.024 -0.308,-0.049 -0.468,-0.049c-1.654,0 -3,1.346 -3,3c0,1.654 1.346,3 3,3h7.5c0.276,0 0.5,0.224 0.5,0.5c0,0.276 -0.224,0.5 -0.5,0.5h-7.5c-2.206,0 -4,-1.794 -4,-4c0,-2.206 1.794,-4 4,-4c0.059,0 0.116,0.002 0.174,0.006c0.414,-1.186 1.537,-2.006 2.826,-2.006c0.349,0 0.689,0.061 1.011,0.18c0.165,-2.333 2.115,-4.18 4.489,-4.18c1.831,0 3.466,1.127 4.153,2.774c0.68,-0.498 1.502,-0.774 2.347,-0.774c2.206,0 4,1.794 4,4c0,0.048 -0.001,0.095 -0.004,0.142c1.743,0.448 3.004,2.027 3.004,3.858c0,2.206 -1.794,4 -4,4z" fill="#472b29"></path><path d="M34.5,75c-0.159,0 -0.841,0 -1,0c-0.276,0 -0.5,0.224 -0.5,0.5c0,0.276 0.224,0.5 0.5,0.5c0.159,0 0.841,0 1,0c0.276,0 0.5,-0.224 0.5,-0.5c0,-0.276 -0.224,-0.5 -0.5,-0.5z" fill="#472b29"></path><path d="M15.405,51h-9.905c-0.276,0 -0.5,-0.224 -0.5,-0.5c0,-0.276 0.224,-0.5 0.5,-0.5h9.905c0.276,0 0.5,0.224 0.5,0.5c0,0.276 -0.223,0.5 -0.5,0.5z" fill="#ffffff"></path><path d="M18.5,51h-1c-0.276,0 -0.5,-0.224 -0.5,-0.5c0,-0.276 0.224,-0.5 0.5,-0.5h1c0.276,0 0.5,0.224 0.5,0.5c0,0.276 -0.223,0.5 -0.5,0.5z" fill="#ffffff"></path><path d="M23.491,53h-8.991c-0.276,0 -0.5,-0.224 -0.5,-0.5c0,-0.276 0.224,-0.5 0.5,-0.5h8.991c0.276,0 0.5,0.224 0.5,0.5c0,0.276 -0.224,0.5 -0.5,0.5z" fill="#ffffff"></path><path d="M12.5,53h-1c-0.276,0 -0.5,-0.224 -0.5,-0.5c0,-0.276 0.224,-0.5 0.5,-0.5h1c0.276,0 0.5,0.224 0.5,0.5c0,0.276 -0.223,0.5 -0.5,0.5z" fill="#ffffff"></path><path d="M9.5,53h-2c-0.276,0 -0.5,-0.224 -0.5,-0.5c0,-0.276 0.224,-0.5 0.5,-0.5h2c0.276,0 0.5,0.224 0.5,0.5c0,0.276 -0.223,0.5 -0.5,0.5z" fill="#ffffff"></path><path d="M15.5,55h-2c-0.276,0 -0.5,-0.224 -0.5,-0.5c0,-0.276 0.224,-0.5 0.5,-0.5h2c0.276,0 0.5,0.224 0.5,0.5c0,0.276 -0.224,0.5 -0.5,0.5z" fill="#ffffff"></path><path d="M18.5,46c-0.177,0 -0.823,0 -1,0c-0.276,0 -0.5,0.224 -0.5,0.5c0,0.276 0.224,0.5 0.5,0.5c0.177,0 0.823,0 1,0c0.276,0 0.5,-0.224 0.5,-0.5c0,-0.276 -0.224,-0.5 -0.5,-0.5z" fill="#ffffff"></path><path d="M18.5,48c-0.177,0 -4.823,0 -5,0c-0.276,0 -0.5,0.224 -0.5,0.5c0,0.276 0.224,0.5 0.5,0.5c0.177,0 4.823,0 5,0c0.276,0 0.5,-0.224 0.5,-0.5c0,-0.276 -0.224,-0.5 -0.5,-0.5z" fill="#ffffff"></path><path d="M23.5,50c-0.177,0 -2.823,0 -3,0c-0.276,0 -0.5,0.224 -0.5,0.5c0,0.276 0.224,0.5 0.5,0.5c0.177,0 2.823,0 3,0c0.276,0 0.5,-0.224 0.5,-0.5c0,-0.276 -0.224,-0.5 -0.5,-0.5z" fill="#ffffff"></path><path d="M87.5,65h-10c-0.276,0 -0.5,-0.224 -0.5,-0.5c0,-0.276 0.224,-0.5 0.5,-0.5h10c0.276,0 0.5,0.224 0.5,0.5c0,0.276 -0.224,0.5 -0.5,0.5z" fill="#ffffff"></path><path d="M91.5,65h-2c-0.276,0 -0.5,-0.224 -0.5,-0.5c0,-0.276 0.224,-0.5 0.5,-0.5h2c0.276,0 0.5,0.224 0.5,0.5c0,0.276 -0.224,0.5 -0.5,0.5z" fill="#ffffff"></path><path d="M96.5,67h-10c-0.276,0 -0.5,-0.224 -0.5,-0.5c0,-0.276 0.224,-0.5 0.5,-0.5h10c0.276,0 0.5,0.224 0.5,0.5c0,0.276 -0.223,0.5 -0.5,0.5z" fill="#ffffff"></path><path d="M84.5,67h-1c-0.276,0 -0.5,-0.224 -0.5,-0.5c0,-0.276 0.224,-0.5 0.5,-0.5h1c0.276,0 0.5,0.224 0.5,0.5c0,0.276 -0.224,0.5 -0.5,0.5z" fill="#ffffff"></path><path d="M81.375,67h-1.875c-0.276,0 -0.5,-0.224 -0.5,-0.5c0,-0.276 0.224,-0.5 0.5,-0.5h1.875c0.276,0 0.5,0.224 0.5,0.5c0,0.276 -0.224,0.5 -0.5,0.5z" fill="#ffffff"></path><path d="M90.5,63h-5c-0.276,0 -0.5,-0.224 -0.5,-0.5c0,-0.276 0.224,-0.5 0.5,-0.5h5c0.276,0 0.5,0.224 0.5,0.5c0,0.276 -0.223,0.5 -0.5,0.5z" fill="#ffffff"></path><path d="M87.5,69h-2c-0.276,0 -0.5,-0.224 -0.5,-0.5c0,-0.276 0.224,-0.5 0.5,-0.5h2c0.276,0 0.5,0.224 0.5,0.5c0,0.276 -0.224,0.5 -0.5,0.5z" fill="#ffffff"></path><circle cx="52" cy="50" r="23" fill="#fdfcef"></circle><path d="M52,73c-12.683,0 -23,-10.318 -23,-23c0,-12.682 10.317,-23 23,-23c12.683,0 23,10.318 23,23c0,12.682 -10.317,23 -23,23zM52,31c-10.477,0 -19,8.523 -19,19c0,10.477 8.523,19 19,19c10.477,0 19,-8.523 19,-19c0,-10.477 -8.523,-19 -19,-19z" fill="#2d80d3"></path><path d="M51.999,27.4c12.462,0 22.601,10.138 22.601,22.599c0,12.462 -10.139,22.601 -22.601,22.601c-12.461,0 -22.599,-10.138 -22.599,-22.6c0,-12.462 10.138,-22.6 22.599,-22.6M51.999,26c-13.234,0 -23.999,10.766 -23.999,24c0,13.234 10.765,24 23.999,24c13.234,0 24.001,-10.767 24.001,-24.001c0,-13.234 -10.766,-23.999 -24.001,-23.999z" fill="#472b29"></path><path d="M42.42,33.512c-0.174,0 -0.344,-0.091 -0.436,-0.254c-0.136,-0.24 -0.051,-0.545 0.189,-0.681c1.009,-0.571 2.075,-1.056 3.167,-1.442c0.262,-0.091 0.546,0.043 0.639,0.305c0.092,0.26 -0.045,0.546 -0.305,0.638c-1.038,0.366 -2.051,0.827 -3.009,1.369c-0.077,0.044 -0.161,0.065 -0.245,0.065z" fill="#472b29"></path><path d="M40.368,66.152c-0.104,0 -0.209,-0.032 -0.299,-0.099c-5.052,-3.761 -8.069,-9.761 -8.069,-16.053c0,-5.936 2.613,-11.528 7.169,-15.343c0.211,-0.179 0.526,-0.149 0.705,0.063c0.177,0.211 0.148,0.527 -0.063,0.704c-4.329,3.624 -6.811,8.937 -6.811,14.576c0,6.066 2.794,11.625 7.667,15.251c0.222,0.165 0.268,0.478 0.103,0.699c-0.099,0.133 -0.249,0.202 -0.402,0.202z" fill="#472b29"></path><path d="M52,70c-3.056,0 -5.989,-0.671 -8.718,-1.996c-0.249,-0.121 -0.353,-0.419 -0.232,-0.668c0.121,-0.249 0.419,-0.353 0.668,-0.231c2.593,1.257 5.379,1.895 8.282,1.895c0.276,0 0.5,0.224 0.5,0.5c0,0.276 -0.224,0.5 -0.5,0.5z" fill="#472b29"></path><path d="M55.503,69.686c-0.236,0 -0.447,-0.169 -0.491,-0.411c-0.049,-0.272 0.131,-0.532 0.403,-0.582c0.636,-0.115 1.275,-0.266 1.901,-0.448c0.267,-0.078 0.543,0.075 0.62,0.34c0.077,0.265 -0.075,0.542 -0.341,0.62c-0.659,0.192 -1.333,0.351 -2.003,0.472c-0.029,0.007 -0.059,0.009 -0.089,0.009z" fill="#472b29"></path><path d="M60.5,68.055c-0.186,0 -0.363,-0.104 -0.45,-0.282c-0.12,-0.249 -0.017,-0.548 0.232,-0.668c6.511,-3.158 10.718,-9.872 10.718,-17.105c0,-10.477 -8.523,-19 -19,-19c-1.163,0 -2.327,0.106 -3.461,0.314c-0.276,0.05 -0.532,-0.129 -0.583,-0.401c-0.05,-0.271 0.13,-0.532 0.401,-0.582c1.194,-0.22 2.419,-0.331 3.643,-0.331c11.028,0 20,8.972 20,20c0,7.613 -4.429,14.681 -11.282,18.005c-0.071,0.034 -0.145,0.05 -0.218,0.05z" fill="#472b29"></path><g>
<path d="M78.875,35.5c0,0 3.64,0 6.125,0c2.485,0 4.5,-2.015 4.5,-4.5c0,-2.333 -1.782,-4.229 -4.055,-4.455c0.022,-0.181 0.055,-0.358 0.055,-0.545c0,-2.485 -2.015,-4.5 -4.5,-4.5c-1.438,0 -2.703,0.686 -3.527,1.736c-0.14,-2.636 -2.302,-4.736 -4.973,-4.736c-2.761,0 -5,2.239 -5,5c0,0.446 0.077,0.87 0.187,1.282c-0.642,-0.777 -1.601,-1.282 -2.687,-1.282c-1.781,0 -3.234,1.335 -3.455,3.055c-0.181,-0.022 -0.358,-0.055 -0.545,-0.055c-2.485,0 -4.5,2.015 -4.5,4.5c0,2.485 2.015,4.5 4.5,4.5c2.485,0 9.5,0 9.5,0h5.375v0.5h3z" fill="#fdfcef"></path><path d="M72.5,18c-3.033,0 -5.5,2.467 -5.5,5.5c0,0.016 0,0.031 0,0.047c-0.602,-0.355 -1.29,-0.547 -2,-0.547c-1.831,0 -3.411,1.261 -3.858,3.005c-0.047,-0.003 -0.094,-0.005 -0.142,-0.005c-2.757,0 -5,2.243 -5,5c0,2.757 2.243,5 5,5h14.875c0.276,0 0.5,-0.224 0.5,-0.5c0,-0.276 -0.224,-0.5 -0.5,-0.5h-14.875c-2.206,0 -4,-1.794 -4,-4c0,-2.206 1.794,-4 4,-4c0.117,0 0.23,0.017 0.343,0.032l0.141,0.019c0.021,0.003 0.041,0.004 0.062,0.004c0.246,0 0.462,-0.185 0.495,-0.437c0.191,-1.493 1.463,-2.618 2.959,-2.618c0.885,0 1.723,0.401 2.301,1.1c0.098,0.118 0.241,0.182 0.386,0.182c0.078,0 0.156,-0.018 0.228,-0.056c0.209,-0.107 0.314,-0.346 0.254,-0.573c-0.115,-0.435 -0.169,-0.801 -0.169,-1.153c0,-2.481 2.019,-4.5 4.5,-4.5c2.381,0 4.347,1.872 4.474,4.263c0.011,0.208 0.15,0.387 0.349,0.45c0.05,0.016 0.101,0.024 0.152,0.024c0.15,0 0.296,-0.069 0.392,-0.192c0.771,-0.982 1.912,-1.545 3.133,-1.545c2.206,0 4,1.794 4,4c0,0.117 -0.017,0.23 -0.032,0.343l-0.019,0.141c-0.016,0.134 0.022,0.268 0.106,0.373c0.084,0.105 0.207,0.172 0.34,0.185c2.056,0.205 3.605,1.907 3.605,3.958c0,2.206 -1.794,4 -4,4h-6.125c-0.276,0 -0.5,0.224 -0.5,0.5c0,0.276 0.224,0.5 0.5,0.5h6.125c2.757,0 5,-2.243 5,-5c0,-2.397 -1.689,-4.413 -4.003,-4.877c0.002,-0.041 0.003,-0.082 0.003,-0.123c0,-2.757 -2.243,-5 -5,-5c-1.176,0 -2.293,0.416 -3.183,1.164c-0.598,-2.404 -2.762,-4.164 -5.317,-4.164z" fill="#472b29"></path><path d="M71,25c-1.403,0 -2.609,0.999 -2.913,2.341c-0.367,-0.222 -0.786,-0.341 -1.212,-0.341c-1.202,0 -2.198,0.897 -2.353,2.068c-0.203,-0.046 -0.396,-0.068 -0.585,-0.068c-1.529,0 -2.811,1.2 -2.918,2.732c-0.009,0.138 0.095,0.258 0.232,0.268c0.006,0 0.012,0 0.018,0c0.13,0 0.24,-0.101 0.249,-0.232c0.089,-1.271 1.151,-2.268 2.419,-2.268c0.229,0 0.47,0.042 0.738,0.127c0.022,0.007 0.045,0.01 0.067,0.01c0.055,0 0.11,-0.02 0.156,-0.054c0.064,-0.046 0.102,-0.128 0.102,-0.208c0,-1.034 0.841,-1.875 1.875,-1.875c0.447,0 0.885,0.168 1.231,0.473c0.047,0.041 0.106,0.063 0.165,0.063c0.032,0 0.063,-0.006 0.093,-0.019c0.088,-0.035 0.148,-0.117 0.155,-0.212c0.104,-1.293 1.193,-2.305 2.481,-2.305c0.208,0 0.425,0.034 0.682,0.107c0.023,0.007 0.047,0.01 0.07,0.01c0.109,0 0.207,-0.073 0.239,-0.182c0.038,-0.133 -0.039,-0.271 -0.172,-0.309c-0.302,-0.086 -0.563,-0.126 -0.819,-0.126z" fill="#472b29"></path><path d="M84.883,26.5c-1.326,0 -2.508,0.897 -2.874,2.182c-0.038,0.133 0.039,0.271 0.172,0.309c0.024,0.006 0.047,0.009 0.069,0.009c0.109,0 0.209,-0.072 0.24,-0.182c0.305,-1.07 1.289,-1.818 2.393,-1.818c0.117,0 0.23,0.014 0.342,0.029c0.012,0.002 0.023,0.003 0.035,0.003c0.121,0 0.229,-0.092 0.246,-0.217c0.019,-0.137 -0.077,-0.263 -0.214,-0.281c-0.134,-0.018 -0.27,-0.034 -0.409,-0.034z" fill="#472b29"></path></g><path d="M61.261,45.145l-4.04,0.536c0,0 0.611,-5.149 -6.115,-5.149c-3.422,0 -4.721,2.059 -4.721,3.613c0,1.898 1.751,2.794 7.216,3.971c5.466,1.177 8.127,3.217 8.127,6.82c0,3.603 -2.636,7.164 -9.741,7.164c-6.417,0 -9.27,-2.816 -10.316,-8.101c2.234,-0.312 4.206,-0.6 4.206,-0.6c0,0 -0.709,5.822 6.084,5.822c3.089,0 5.871,-0.898 5.871,-3.828c0,-2.93 -2.829,-3.507 -6.298,-4.131c-3.47,-0.625 -8.912,-1.85 -8.912,-7.062c0,-4.623 5.038,-6.701 8.436,-6.701c7.437,0 10.203,4.129 10.203,7.646z" fill="#605e60"></path><path d="M51.987,62.351c-6.168,0 -9.426,-2.561 -10.561,-8.302c-0.014,-0.067 0.002,-0.137 0.041,-0.193c0.04,-0.056 0.102,-0.093 0.17,-0.103c2.232,-0.313 4.204,-0.601 4.204,-0.601c0.074,-0.01 0.154,0.014 0.211,0.069c0.056,0.054 0.083,0.131 0.073,0.208c-0.003,0.022 -0.25,2.251 1.174,3.856c0.994,1.119 2.562,1.687 4.661,1.687c2.564,0 5.621,-0.621 5.621,-3.579c0,-2.601 -2.302,-3.203 -6.093,-3.885c-2.96,-0.533 -9.117,-1.642 -9.117,-7.308c0,-4.742 5.184,-6.951 8.687,-6.951c7.221,0 10.452,3.966 10.452,7.896c0,0.125 -0.093,0.231 -0.217,0.248l-4.039,0.537c-0.075,0.011 -0.153,-0.016 -0.208,-0.07c-0.056,-0.054 -0.082,-0.131 -0.073,-0.207c0.002,-0.018 0.191,-1.81 -1.043,-3.195c-0.991,-1.111 -2.614,-1.675 -4.825,-1.675c-3.071,0 -4.471,1.744 -4.471,3.363c0,1.697 1.64,2.568 7.02,3.727c5.757,1.24 8.324,3.418 8.324,7.064c0.001,3.584 -2.624,7.414 -9.991,7.414zM41.971,54.211c1.137,5.352 4.146,7.64 10.017,7.64c8.807,0 9.491,-5.292 9.491,-6.914c0,-3.367 -2.445,-5.395 -7.93,-6.575c-5.127,-1.104 -7.414,-1.975 -7.414,-4.216c0,-1.861 1.556,-3.863 4.971,-3.863c2.363,0 4.114,0.622 5.203,1.848c1.069,1.203 1.186,2.637 1.179,3.263l3.52,-0.468c-0.109,-3.361 -2.759,-7.177 -9.948,-7.177c-3.302,0 -8.187,2.05 -8.187,6.451c0,4.625 4.4,6.041 8.705,6.816c3.346,0.602 6.505,1.171 6.505,4.377c0,2.63 -2.174,4.079 -6.121,4.079c-2.251,0 -3.946,-0.625 -5.038,-1.859c-1.251,-1.413 -1.338,-3.199 -1.314,-3.921c-0.607,0.088 -2.037,0.294 -3.639,0.519z" fill="#472b29"></path></g></g></svg>